<svg height="2400" style="background-color: #f8f9fa; font-family: &apos;Segoe UI&apos;, Arial, sans-serif;" viewBox="0 0 1800 2400" width="1800" xmlns="http://www.w3.org/2000/svg">
<style>

        .tooltip { opacity: 0; transition: opacity 0.3s; }
        .chart-element:hover .tooltip { opacity: 1; }
        .interactive-bar:hover { opacity: 0.8; cursor: pointer; }
        .legend-item:hover { background-color: #ecf0f1; }
        .heatmap-cell:hover { stroke-width: 2; }
        .trend-line { stroke-dasharray: 5,5; animation: dash 1s linear infinite; }
        @keyframes dash { to { stroke-dashoffset: -10; } }
        .performance-gauge { filter: drop-shadow(2px 2px 4px rgba(0,0,0,0.3)); }
        .callstack-node:hover { transform: scale(1.1); transform-origin: center; }
    
</style>
<text fill="#2c3e50" font-size="24" font-weight="bold" text-anchor="middle" x="600" y="40">
Rust Memory Usage Analysis
</text>
<rect fill="#ecf0f1" height="80" rx="5" stroke="#bdc3c7" stroke-width="1" width="1100" x="50" y="60"/>
<text fill="#34495e" font-size="14" font-weight="600" x="80" y="105">
Active Allocations: 133704
</text>
<text fill="#34495e" font-size="14" font-weight="600" x="350" y="105">
Active Memory: 7.3 MB
</text>
<text fill="#34495e" font-size="14" font-weight="600" x="620" y="105">
Peak Memory: 37.0 MB
</text>
<text fill="#34495e" font-size="14" font-weight="600" x="890" y="105">
Total Allocations: 10143727
</text>
<rect class="performance-gauge" fill="white" height="200" rx="10" stroke="#3498db" stroke-width="2" width="1700" x="50" y="170"/>
<text fill="#2c3e50" font-size="18" font-weight="bold" text-anchor="middle" x="900" y="160">
Performance Dashboard
</text>
<circle cx="100" cy="220" fill="none" r="40" stroke="#ecf0f1" stroke-width="8"/>
<circle cx="100" cy="220" fill="none" r="40" stroke="#e74c3c" stroke-dasharray="248.01467720150484 300" stroke-width="8" transform="rotate(-90 100 220)"/>
<text fill="#e74c3c" font-size="12" font-weight="bold" text-anchor="middle" x="100" y="225">
98.7%
</text>
<text fill="#7f8c8d" font-size="10" text-anchor="middle" x="100" y="280">
Memory Efficiency
</text>
<circle cx="270" cy="220" fill="none" r="40" stroke="#ecf0f1" stroke-width="8"/>
<circle cx="270" cy="220" fill="none" r="40" stroke="#f39c12" stroke-dasharray="0 300" stroke-width="8" transform="rotate(-90 270 220)"/>
<text fill="#f39c12" font-size="12" font-weight="bold" text-anchor="middle" x="270" y="225">
0.0B
</text>
<text fill="#7f8c8d" font-size="10" text-anchor="middle" x="270" y="280">
Avg Alloc Size
</text>
<circle cx="440" cy="220" fill="none" r="40" stroke="#ecf0f1" stroke-width="8"/>
<circle cx="440" cy="220" fill="none" r="40" stroke="#27ae60" stroke-dasharray="49.22002173666944 300" stroke-width="8" transform="rotate(-90 440 220)"/>
<text fill="#27ae60" font-size="12" font-weight="bold" text-anchor="middle" x="440" y="225">
19.6%
</text>
<text fill="#7f8c8d" font-size="10" text-anchor="middle" x="440" y="280">
Memory Utilization
</text>
<circle cx="610" cy="220" fill="none" r="40" stroke="#ecf0f1" stroke-width="8"/>
<circle cx="610" cy="220" fill="none" r="40" stroke="#9b59b6" stroke-dasharray="251.32741228718345 300" stroke-width="8" transform="rotate(-90 610 220)"/>
<text fill="#9b59b6" font-size="12" font-weight="bold" text-anchor="middle" x="610" y="225">
133704.0
</text>
<text fill="#7f8c8d" font-size="10" text-anchor="middle" x="610" y="280">
Active Allocs
</text>
<rect fill="white" height="200" rx="10" stroke="#e74c3c" stroke-width="2" width="1700" x="50" y="420"/>
<text fill="#2c3e50" font-size="18" font-weight="bold" text-anchor="middle" x="900" y="410">
Memory Allocation Heatmap
</text>
<rect class="heatmap-cell" fill="rgb(12, 100, 242)" height="19" stroke="#bdc3c7" stroke-width="0.5" width="82" x="70" y="440"/>
<text fill="black" font-size="8" text-anchor="middle" x="111" y="453">
2374
</text>
<rect class="heatmap-cell" fill="rgb(0, 100, 254)" height="19" stroke="#bdc3c7" stroke-width="0.5" width="82" x="153" y="440"/>
<text fill="black" font-size="8" text-anchor="middle" x="194" y="453">
16
</text>
<rect class="heatmap-cell" fill="rgb(0, 100, 254)" height="19" stroke="#bdc3c7" stroke-width="0.5" width="82" x="236" y="440"/>
<text fill="black" font-size="8" text-anchor="middle" x="277" y="453">
1
</text>
<rect class="heatmap-cell" fill="rgb(0, 100, 254)" height="19" stroke="#bdc3c7" stroke-width="0.5" width="82" x="319" y="440"/>
<text fill="black" font-size="8" text-anchor="middle" x="360" y="453">
1
</text>
<rect class="heatmap-cell" fill="#f8f9fa" height="19" stroke="#bdc3c7" stroke-width="0.5" width="82" x="402" y="440"/>
<rect class="heatmap-cell" fill="#f8f9fa" height="19" stroke="#bdc3c7" stroke-width="0.5" width="82" x="485" y="440"/>
<rect class="heatmap-cell" fill="#f8f9fa" height="19" stroke="#bdc3c7" stroke-width="0.5" width="82" x="568" y="440"/>
<rect class="heatmap-cell" fill="#f8f9fa" height="19" stroke="#bdc3c7" stroke-width="0.5" width="82" x="651" y="440"/>
<rect class="heatmap-cell" fill="#f8f9fa" height="19" stroke="#bdc3c7" stroke-width="0.5" width="82" x="734" y="440"/>
<rect class="heatmap-cell" fill="#f8f9fa" height="19" stroke="#bdc3c7" stroke-width="0.5" width="82" x="817" y="440"/>
<rect class="heatmap-cell" fill="#f8f9fa" height="19" stroke="#bdc3c7" stroke-width="0.5" width="82" x="900" y="440"/>
<rect class="heatmap-cell" fill="#f8f9fa" height="19" stroke="#bdc3c7" stroke-width="0.5" width="82" x="983" y="440"/>
<rect class="heatmap-cell" fill="#f8f9fa" height="19" stroke="#bdc3c7" stroke-width="0.5" width="82" x="1066" y="440"/>
<rect class="heatmap-cell" fill="#f8f9fa" height="19" stroke="#bdc3c7" stroke-width="0.5" width="82" x="1149" y="440"/>
<rect class="heatmap-cell" fill="#f8f9fa" height="19" stroke="#bdc3c7" stroke-width="0.5" width="82" x="1232" y="440"/>
<rect class="heatmap-cell" fill="#f8f9fa" height="19" stroke="#bdc3c7" stroke-width="0.5" width="82" x="1315" y="440"/>
<rect class="heatmap-cell" fill="#f8f9fa" height="19" stroke="#bdc3c7" stroke-width="0.5" width="82" x="1398" y="440"/>
<rect class="heatmap-cell" fill="#f8f9fa" height="19" stroke="#bdc3c7" stroke-width="0.5" width="82" x="1481" y="440"/>
<rect class="heatmap-cell" fill="#f8f9fa" height="19" stroke="#bdc3c7" stroke-width="0.5" width="82" x="1564" y="440"/>
<rect class="heatmap-cell" fill="rgb(0, 100, 254)" height="19" stroke="#bdc3c7" stroke-width="0.5" width="82" x="1647" y="440"/>
<text fill="black" font-size="8" text-anchor="middle" x="1688" y="453">
1
</text>
<rect class="heatmap-cell" fill="rgb(8, 100, 246)" height="19" stroke="#bdc3c7" stroke-width="0.5" width="82" x="70" y="460"/>
<text fill="black" font-size="8" text-anchor="middle" x="111" y="473">
1503
</text>
<rect class="heatmap-cell" fill="#f8f9fa" height="19" stroke="#bdc3c7" stroke-width="0.5" width="82" x="153" y="460"/>
<rect class="heatmap-cell" fill="#f8f9fa" height="19" stroke="#bdc3c7" stroke-width="0.5" width="82" x="236" y="460"/>
<rect class="heatmap-cell" fill="#f8f9fa" height="19" stroke="#bdc3c7" stroke-width="0.5" width="82" x="319" y="460"/>
<rect class="heatmap-cell" fill="#f8f9fa" height="19" stroke="#bdc3c7" stroke-width="0.5" width="82" x="402" y="460"/>
<rect class="heatmap-cell" fill="#f8f9fa" height="19" stroke="#bdc3c7" stroke-width="0.5" width="82" x="485" y="460"/>
<rect class="heatmap-cell" fill="#f8f9fa" height="19" stroke="#bdc3c7" stroke-width="0.5" width="82" x="568" y="460"/>
<rect class="heatmap-cell" fill="#f8f9fa" height="19" stroke="#bdc3c7" stroke-width="0.5" width="82" x="651" y="460"/>
<rect class="heatmap-cell" fill="#f8f9fa" height="19" stroke="#bdc3c7" stroke-width="0.5" width="82" x="734" y="460"/>
<rect class="heatmap-cell" fill="#f8f9fa" height="19" stroke="#bdc3c7" stroke-width="0.5" width="82" x="817" y="460"/>
<rect class="heatmap-cell" fill="#f8f9fa" height="19" stroke="#bdc3c7" stroke-width="0.5" width="82" x="900" y="460"/>
<rect class="heatmap-cell" fill="#f8f9fa" height="19" stroke="#bdc3c7" stroke-width="0.5" width="82" x="983" y="460"/>
<rect class="heatmap-cell" fill="#f8f9fa" height="19" stroke="#bdc3c7" stroke-width="0.5" width="82" x="1066" y="460"/>
<rect class="heatmap-cell" fill="#f8f9fa" height="19" stroke="#bdc3c7" stroke-width="0.5" width="82" x="1149" y="460"/>
<rect class="heatmap-cell" fill="#f8f9fa" height="19" stroke="#bdc3c7" stroke-width="0.5" width="82" x="1232" y="460"/>
<rect class="heatmap-cell" fill="#f8f9fa" height="19" stroke="#bdc3c7" stroke-width="0.5" width="82" x="1315" y="460"/>
<rect class="heatmap-cell" fill="#f8f9fa" height="19" stroke="#bdc3c7" stroke-width="0.5" width="82" x="1398" y="460"/>
<rect class="heatmap-cell" fill="#f8f9fa" height="19" stroke="#bdc3c7" stroke-width="0.5" width="82" x="1481" y="460"/>
<rect class="heatmap-cell" fill="#f8f9fa" height="19" stroke="#bdc3c7" stroke-width="0.5" width="82" x="1564" y="460"/>
<rect class="heatmap-cell" fill="#f8f9fa" height="19" stroke="#bdc3c7" stroke-width="0.5" width="82" x="1647" y="460"/>
<rect class="heatmap-cell" fill="rgb(39, 100, 215)" height="19" stroke="#bdc3c7" stroke-width="0.5" width="82" x="70" y="480"/>
<text fill="black" font-size="8" text-anchor="middle" x="111" y="493">
7438
</text>
<rect class="heatmap-cell" fill="#f8f9fa" height="19" stroke="#bdc3c7" stroke-width="0.5" width="82" x="153" y="480"/>
<rect class="heatmap-cell" fill="#f8f9fa" height="19" stroke="#bdc3c7" stroke-width="0.5" width="82" x="236" y="480"/>
<rect class="heatmap-cell" fill="#f8f9fa" height="19" stroke="#bdc3c7" stroke-width="0.5" width="82" x="319" y="480"/>
<rect class="heatmap-cell" fill="#f8f9fa" height="19" stroke="#bdc3c7" stroke-width="0.5" width="82" x="402" y="480"/>
<rect class="heatmap-cell" fill="#f8f9fa" height="19" stroke="#bdc3c7" stroke-width="0.5" width="82" x="485" y="480"/>
<rect class="heatmap-cell" fill="#f8f9fa" height="19" stroke="#bdc3c7" stroke-width="0.5" width="82" x="568" y="480"/>
<rect class="heatmap-cell" fill="#f8f9fa" height="19" stroke="#bdc3c7" stroke-width="0.5" width="82" x="651" y="480"/>
<rect class="heatmap-cell" fill="#f8f9fa" height="19" stroke="#bdc3c7" stroke-width="0.5" width="82" x="734" y="480"/>
<rect class="heatmap-cell" fill="#f8f9fa" height="19" stroke="#bdc3c7" stroke-width="0.5" width="82" x="817" y="480"/>
<rect class="heatmap-cell" fill="#f8f9fa" height="19" stroke="#bdc3c7" stroke-width="0.5" width="82" x="900" y="480"/>
<rect class="heatmap-cell" fill="#f8f9fa" height="19" stroke="#bdc3c7" stroke-width="0.5" width="82" x="983" y="480"/>
<rect class="heatmap-cell" fill="#f8f9fa" height="19" stroke="#bdc3c7" stroke-width="0.5" width="82" x="1066" y="480"/>
<rect class="heatmap-cell" fill="#f8f9fa" height="19" stroke="#bdc3c7" stroke-width="0.5" width="82" x="1149" y="480"/>
<rect class="heatmap-cell" fill="#f8f9fa" height="19" stroke="#bdc3c7" stroke-width="0.5" width="82" x="1232" y="480"/>
<rect class="heatmap-cell" fill="#f8f9fa" height="19" stroke="#bdc3c7" stroke-width="0.5" width="82" x="1315" y="480"/>
<rect class="heatmap-cell" fill="#f8f9fa" height="19" stroke="#bdc3c7" stroke-width="0.5" width="82" x="1398" y="480"/>
<rect class="heatmap-cell" fill="#f8f9fa" height="19" stroke="#bdc3c7" stroke-width="0.5" width="82" x="1481" y="480"/>
<rect class="heatmap-cell" fill="#f8f9fa" height="19" stroke="#bdc3c7" stroke-width="0.5" width="82" x="1564" y="480"/>
<rect class="heatmap-cell" fill="#f8f9fa" height="19" stroke="#bdc3c7" stroke-width="0.5" width="82" x="1647" y="480"/>
<rect class="heatmap-cell" fill="rgb(255, 100, 0)" height="19" stroke="#bdc3c7" stroke-width="0.5" width="82" x="70" y="500"/>
<text fill="white" font-size="8" text-anchor="middle" x="111" y="513">
47472
</text>
<rect class="heatmap-cell" fill="rgb(0, 100, 254)" height="19" stroke="#bdc3c7" stroke-width="0.5" width="82" x="153" y="500"/>
<text fill="black" font-size="8" text-anchor="middle" x="194" y="513">
12
</text>
<rect class="heatmap-cell" fill="#f8f9fa" height="19" stroke="#bdc3c7" stroke-width="0.5" width="82" x="236" y="500"/>
<rect class="heatmap-cell" fill="#f8f9fa" height="19" stroke="#bdc3c7" stroke-width="0.5" width="82" x="319" y="500"/>
<rect class="heatmap-cell" fill="#f8f9fa" height="19" stroke="#bdc3c7" stroke-width="0.5" width="82" x="402" y="500"/>
<rect class="heatmap-cell" fill="#f8f9fa" height="19" stroke="#bdc3c7" stroke-width="0.5" width="82" x="485" y="500"/>
<rect class="heatmap-cell" fill="#f8f9fa" height="19" stroke="#bdc3c7" stroke-width="0.5" width="82" x="568" y="500"/>
<rect class="heatmap-cell" fill="#f8f9fa" height="19" stroke="#bdc3c7" stroke-width="0.5" width="82" x="651" y="500"/>
<rect class="heatmap-cell" fill="#f8f9fa" height="19" stroke="#bdc3c7" stroke-width="0.5" width="82" x="734" y="500"/>
<rect class="heatmap-cell" fill="#f8f9fa" height="19" stroke="#bdc3c7" stroke-width="0.5" width="82" x="817" y="500"/>
<rect class="heatmap-cell" fill="#f8f9fa" height="19" stroke="#bdc3c7" stroke-width="0.5" width="82" x="900" y="500"/>
<rect class="heatmap-cell" fill="#f8f9fa" height="19" stroke="#bdc3c7" stroke-width="0.5" width="82" x="983" y="500"/>
<rect class="heatmap-cell" fill="#f8f9fa" height="19" stroke="#bdc3c7" stroke-width="0.5" width="82" x="1066" y="500"/>
<rect class="heatmap-cell" fill="#f8f9fa" height="19" stroke="#bdc3c7" stroke-width="0.5" width="82" x="1149" y="500"/>
<rect class="heatmap-cell" fill="#f8f9fa" height="19" stroke="#bdc3c7" stroke-width="0.5" width="82" x="1232" y="500"/>
<rect class="heatmap-cell" fill="#f8f9fa" height="19" stroke="#bdc3c7" stroke-width="0.5" width="82" x="1315" y="500"/>
<rect class="heatmap-cell" fill="#f8f9fa" height="19" stroke="#bdc3c7" stroke-width="0.5" width="82" x="1398" y="500"/>
<rect class="heatmap-cell" fill="#f8f9fa" height="19" stroke="#bdc3c7" stroke-width="0.5" width="82" x="1481" y="500"/>
<rect class="heatmap-cell" fill="#f8f9fa" height="19" stroke="#bdc3c7" stroke-width="0.5" width="82" x="1564" y="500"/>
<rect class="heatmap-cell" fill="#f8f9fa" height="19" stroke="#bdc3c7" stroke-width="0.5" width="82" x="1647" y="500"/>
<rect class="heatmap-cell" fill="rgb(17, 100, 237)" height="19" stroke="#bdc3c7" stroke-width="0.5" width="82" x="70" y="520"/>
<text fill="black" font-size="8" text-anchor="middle" x="111" y="533">
3257
</text>
<rect class="heatmap-cell" fill="rgb(0, 100, 254)" height="19" stroke="#bdc3c7" stroke-width="0.5" width="82" x="153" y="520"/>
<text fill="black" font-size="8" text-anchor="middle" x="194" y="533">
2
</text>
<rect class="heatmap-cell" fill="#f8f9fa" height="19" stroke="#bdc3c7" stroke-width="0.5" width="82" x="236" y="520"/>
<rect class="heatmap-cell" fill="#f8f9fa" height="19" stroke="#bdc3c7" stroke-width="0.5" width="82" x="319" y="520"/>
<rect class="heatmap-cell" fill="#f8f9fa" height="19" stroke="#bdc3c7" stroke-width="0.5" width="82" x="402" y="520"/>
<rect class="heatmap-cell" fill="#f8f9fa" height="19" stroke="#bdc3c7" stroke-width="0.5" width="82" x="485" y="520"/>
<rect class="heatmap-cell" fill="#f8f9fa" height="19" stroke="#bdc3c7" stroke-width="0.5" width="82" x="568" y="520"/>
<rect class="heatmap-cell" fill="#f8f9fa" height="19" stroke="#bdc3c7" stroke-width="0.5" width="82" x="651" y="520"/>
<rect class="heatmap-cell" fill="#f8f9fa" height="19" stroke="#bdc3c7" stroke-width="0.5" width="82" x="734" y="520"/>
<rect class="heatmap-cell" fill="#f8f9fa" height="19" stroke="#bdc3c7" stroke-width="0.5" width="82" x="817" y="520"/>
<rect class="heatmap-cell" fill="#f8f9fa" height="19" stroke="#bdc3c7" stroke-width="0.5" width="82" x="900" y="520"/>
<rect class="heatmap-cell" fill="#f8f9fa" height="19" stroke="#bdc3c7" stroke-width="0.5" width="82" x="983" y="520"/>
<rect class="heatmap-cell" fill="#f8f9fa" height="19" stroke="#bdc3c7" stroke-width="0.5" width="82" x="1066" y="520"/>
<rect class="heatmap-cell" fill="#f8f9fa" height="19" stroke="#bdc3c7" stroke-width="0.5" width="82" x="1149" y="520"/>
<rect class="heatmap-cell" fill="#f8f9fa" height="19" stroke="#bdc3c7" stroke-width="0.5" width="82" x="1232" y="520"/>
<rect class="heatmap-cell" fill="#f8f9fa" height="19" stroke="#bdc3c7" stroke-width="0.5" width="82" x="1315" y="520"/>
<rect class="heatmap-cell" fill="#f8f9fa" height="19" stroke="#bdc3c7" stroke-width="0.5" width="82" x="1398" y="520"/>
<rect class="heatmap-cell" fill="#f8f9fa" height="19" stroke="#bdc3c7" stroke-width="0.5" width="82" x="1481" y="520"/>
<rect class="heatmap-cell" fill="#f8f9fa" height="19" stroke="#bdc3c7" stroke-width="0.5" width="82" x="1564" y="520"/>
<rect class="heatmap-cell" fill="#f8f9fa" height="19" stroke="#bdc3c7" stroke-width="0.5" width="82" x="1647" y="520"/>
<rect class="heatmap-cell" fill="rgb(1, 100, 253)" height="19" stroke="#bdc3c7" stroke-width="0.5" width="82" x="70" y="540"/>
<text fill="black" font-size="8" text-anchor="middle" x="111" y="553">
286
</text>
<rect class="heatmap-cell" fill="#f8f9fa" height="19" stroke="#bdc3c7" stroke-width="0.5" width="82" x="153" y="540"/>
<rect class="heatmap-cell" fill="#f8f9fa" height="19" stroke="#bdc3c7" stroke-width="0.5" width="82" x="236" y="540"/>
<rect class="heatmap-cell" fill="#f8f9fa" height="19" stroke="#bdc3c7" stroke-width="0.5" width="82" x="319" y="540"/>
<rect class="heatmap-cell" fill="#f8f9fa" height="19" stroke="#bdc3c7" stroke-width="0.5" width="82" x="402" y="540"/>
<rect class="heatmap-cell" fill="#f8f9fa" height="19" stroke="#bdc3c7" stroke-width="0.5" width="82" x="485" y="540"/>
<rect class="heatmap-cell" fill="#f8f9fa" height="19" stroke="#bdc3c7" stroke-width="0.5" width="82" x="568" y="540"/>
<rect class="heatmap-cell" fill="#f8f9fa" height="19" stroke="#bdc3c7" stroke-width="0.5" width="82" x="651" y="540"/>
<rect class="heatmap-cell" fill="#f8f9fa" height="19" stroke="#bdc3c7" stroke-width="0.5" width="82" x="734" y="540"/>
<rect class="heatmap-cell" fill="#f8f9fa" height="19" stroke="#bdc3c7" stroke-width="0.5" width="82" x="817" y="540"/>
<rect class="heatmap-cell" fill="#f8f9fa" height="19" stroke="#bdc3c7" stroke-width="0.5" width="82" x="900" y="540"/>
<rect class="heatmap-cell" fill="#f8f9fa" height="19" stroke="#bdc3c7" stroke-width="0.5" width="82" x="983" y="540"/>
<rect class="heatmap-cell" fill="#f8f9fa" height="19" stroke="#bdc3c7" stroke-width="0.5" width="82" x="1066" y="540"/>
<rect class="heatmap-cell" fill="#f8f9fa" height="19" stroke="#bdc3c7" stroke-width="0.5" width="82" x="1149" y="540"/>
<rect class="heatmap-cell" fill="#f8f9fa" height="19" stroke="#bdc3c7" stroke-width="0.5" width="82" x="1232" y="540"/>
<rect class="heatmap-cell" fill="#f8f9fa" height="19" stroke="#bdc3c7" stroke-width="0.5" width="82" x="1315" y="540"/>
<rect class="heatmap-cell" fill="#f8f9fa" height="19" stroke="#bdc3c7" stroke-width="0.5" width="82" x="1398" y="540"/>
<rect class="heatmap-cell" fill="#f8f9fa" height="19" stroke="#bdc3c7" stroke-width="0.5" width="82" x="1481" y="540"/>
<rect class="heatmap-cell" fill="#f8f9fa" height="19" stroke="#bdc3c7" stroke-width="0.5" width="82" x="1564" y="540"/>
<rect class="heatmap-cell" fill="#f8f9fa" height="19" stroke="#bdc3c7" stroke-width="0.5" width="82" x="1647" y="540"/>
<rect class="heatmap-cell" fill="rgb(2, 100, 252)" height="19" stroke="#bdc3c7" stroke-width="0.5" width="82" x="70" y="560"/>
<text fill="black" font-size="8" text-anchor="middle" x="111" y="573">
482
</text>
<rect class="heatmap-cell" fill="#f8f9fa" height="19" stroke="#bdc3c7" stroke-width="0.5" width="82" x="153" y="560"/>
<rect class="heatmap-cell" fill="#f8f9fa" height="19" stroke="#bdc3c7" stroke-width="0.5" width="82" x="236" y="560"/>
<rect class="heatmap-cell" fill="#f8f9fa" height="19" stroke="#bdc3c7" stroke-width="0.5" width="82" x="319" y="560"/>
<rect class="heatmap-cell" fill="#f8f9fa" height="19" stroke="#bdc3c7" stroke-width="0.5" width="82" x="402" y="560"/>
<rect class="heatmap-cell" fill="#f8f9fa" height="19" stroke="#bdc3c7" stroke-width="0.5" width="82" x="485" y="560"/>
<rect class="heatmap-cell" fill="#f8f9fa" height="19" stroke="#bdc3c7" stroke-width="0.5" width="82" x="568" y="560"/>
<rect class="heatmap-cell" fill="#f8f9fa" height="19" stroke="#bdc3c7" stroke-width="0.5" width="82" x="651" y="560"/>
<rect class="heatmap-cell" fill="#f8f9fa" height="19" stroke="#bdc3c7" stroke-width="0.5" width="82" x="734" y="560"/>
<rect class="heatmap-cell" fill="#f8f9fa" height="19" stroke="#bdc3c7" stroke-width="0.5" width="82" x="817" y="560"/>
<rect class="heatmap-cell" fill="#f8f9fa" height="19" stroke="#bdc3c7" stroke-width="0.5" width="82" x="900" y="560"/>
<rect class="heatmap-cell" fill="#f8f9fa" height="19" stroke="#bdc3c7" stroke-width="0.5" width="82" x="983" y="560"/>
<rect class="heatmap-cell" fill="#f8f9fa" height="19" stroke="#bdc3c7" stroke-width="0.5" width="82" x="1066" y="560"/>
<rect class="heatmap-cell" fill="#f8f9fa" height="19" stroke="#bdc3c7" stroke-width="0.5" width="82" x="1149" y="560"/>
<rect class="heatmap-cell" fill="#f8f9fa" height="19" stroke="#bdc3c7" stroke-width="0.5" width="82" x="1232" y="560"/>
<rect class="heatmap-cell" fill="#f8f9fa" height="19" stroke="#bdc3c7" stroke-width="0.5" width="82" x="1315" y="560"/>
<rect class="heatmap-cell" fill="#f8f9fa" height="19" stroke="#bdc3c7" stroke-width="0.5" width="82" x="1398" y="560"/>
<rect class="heatmap-cell" fill="#f8f9fa" height="19" stroke="#bdc3c7" stroke-width="0.5" width="82" x="1481" y="560"/>
<rect class="heatmap-cell" fill="#f8f9fa" height="19" stroke="#bdc3c7" stroke-width="0.5" width="82" x="1564" y="560"/>
<rect class="heatmap-cell" fill="#f8f9fa" height="19" stroke="#bdc3c7" stroke-width="0.5" width="82" x="1647" y="560"/>
<rect class="heatmap-cell" fill="#f8f9fa" height="19" stroke="#bdc3c7" stroke-width="0.5" width="82" x="70" y="580"/>
<rect class="heatmap-cell" fill="#f8f9fa" height="19" stroke="#bdc3c7" stroke-width="0.5" width="82" x="153" y="580"/>
<rect class="heatmap-cell" fill="#f8f9fa" height="19" stroke="#bdc3c7" stroke-width="0.5" width="82" x="236" y="580"/>
<rect class="heatmap-cell" fill="#f8f9fa" height="19" stroke="#bdc3c7" stroke-width="0.5" width="82" x="319" y="580"/>
<rect class="heatmap-cell" fill="#f8f9fa" height="19" stroke="#bdc3c7" stroke-width="0.5" width="82" x="402" y="580"/>
<rect class="heatmap-cell" fill="#f8f9fa" height="19" stroke="#bdc3c7" stroke-width="0.5" width="82" x="485" y="580"/>
<rect class="heatmap-cell" fill="#f8f9fa" height="19" stroke="#bdc3c7" stroke-width="0.5" width="82" x="568" y="580"/>
<rect class="heatmap-cell" fill="#f8f9fa" height="19" stroke="#bdc3c7" stroke-width="0.5" width="82" x="651" y="580"/>
<rect class="heatmap-cell" fill="#f8f9fa" height="19" stroke="#bdc3c7" stroke-width="0.5" width="82" x="734" y="580"/>
<rect class="heatmap-cell" fill="#f8f9fa" height="19" stroke="#bdc3c7" stroke-width="0.5" width="82" x="817" y="580"/>
<rect class="heatmap-cell" fill="#f8f9fa" height="19" stroke="#bdc3c7" stroke-width="0.5" width="82" x="900" y="580"/>
<rect class="heatmap-cell" fill="#f8f9fa" height="19" stroke="#bdc3c7" stroke-width="0.5" width="82" x="983" y="580"/>
<rect class="heatmap-cell" fill="#f8f9fa" height="19" stroke="#bdc3c7" stroke-width="0.5" width="82" x="1066" y="580"/>
<rect class="heatmap-cell" fill="#f8f9fa" height="19" stroke="#bdc3c7" stroke-width="0.5" width="82" x="1149" y="580"/>
<rect class="heatmap-cell" fill="#f8f9fa" height="19" stroke="#bdc3c7" stroke-width="0.5" width="82" x="1232" y="580"/>
<rect class="heatmap-cell" fill="#f8f9fa" height="19" stroke="#bdc3c7" stroke-width="0.5" width="82" x="1315" y="580"/>
<rect class="heatmap-cell" fill="#f8f9fa" height="19" stroke="#bdc3c7" stroke-width="0.5" width="82" x="1398" y="580"/>
<rect class="heatmap-cell" fill="#f8f9fa" height="19" stroke="#bdc3c7" stroke-width="0.5" width="82" x="1481" y="580"/>
<rect class="heatmap-cell" fill="#f8f9fa" height="19" stroke="#bdc3c7" stroke-width="0.5" width="82" x="1564" y="580"/>
<rect class="heatmap-cell" fill="#f8f9fa" height="19" stroke="#bdc3c7" stroke-width="0.5" width="82" x="1647" y="580"/>
<text fill="#7f8c8d" font-size="10" x="70" y="605">
Size →
</text>
<text fill="#7f8c8d" font-size="10" transform="rotate(-90 60 460)" x="60" y="460">
↑ Time
</text>
<rect fill="white" height="300" rx="5" stroke="#bdc3c7" stroke-width="1" width="850" x="50" y="670"/>
<text fill="#2c3e50" font-size="16" font-weight="bold" text-anchor="middle" x="475" y="660">
Memory Usage by Type
</text>
<rect fill="#3498db" height="255" stroke="#34495e" stroke-width="1" width="650" x="200" y="690"/>
<text fill="#2c3e50" font-size="11" font-weight="600" x="60" y="824">
Vec&lt;String&gt;&gt;
</text>
<text fill="white" font-size="10" x="210" y="824">
16.0 KB (32 allocs)
</text>
<rect fill="white" height="300" rx="10" stroke="#f39c12" stroke-width="2" width="800" x="950" y="670"/>
<text fill="#2c3e50" font-size="18" font-weight="bold" text-anchor="middle" x="1350" y="660">
Memory Fragmentation Analysis
</text>
<rect fill="#27ae60" height="220" stroke="#2c3e50" stroke-width="1" width="111" x="1000" y="710"/>
<text fill="#2c3e50" font-size="12" font-weight="bold" text-anchor="middle" x="1058" y="705">
58710
</text>
<text fill="#7f8c8d" font-size="10" text-anchor="middle" x="1058" y="960">
Tiny (0-64B)
</text>
<rect fill="#27ae60" height="3" stroke="#2c3e50" stroke-width="1" width="111" x="1116" y="927"/>
<text fill="#2c3e50" font-size="12" font-weight="bold" text-anchor="middle" x="1174" y="922">
1051
</text>
<text fill="#7f8c8d" font-size="10" text-anchor="middle" x="1174" y="960">
Small (65-256B)
</text>
<rect fill="#f39c12" height="7" stroke="#2c3e50" stroke-width="1" width="111" x="1232" y="923"/>
<text fill="#2c3e50" font-size="12" font-weight="bold" text-anchor="middle" x="1290" y="918">
2091
</text>
<text fill="#7f8c8d" font-size="10" text-anchor="middle" x="1290" y="960">
Medium (257B-1KB)
</text>
<rect fill="#f39c12" height="3" stroke="#2c3e50" stroke-width="1" width="111" x="1348" y="927"/>
<text fill="#2c3e50" font-size="12" font-weight="bold" text-anchor="middle" x="1406" y="922">
991
</text>
<text fill="#7f8c8d" font-size="10" text-anchor="middle" x="1406" y="960">
Large (1-4KB)
</text>
<rect fill="#e74c3c" height="0" stroke="#2c3e50" stroke-width="1" width="111" x="1464" y="930"/>
<text fill="#2c3e50" font-size="12" font-weight="bold" text-anchor="middle" x="1522" y="925">
1
</text>
<text fill="#7f8c8d" font-size="10" text-anchor="middle" x="1522" y="960">
XLarge (4-16KB)
</text>
<rect fill="#e74c3c" height="0" stroke="#2c3e50" stroke-width="1" width="111" x="1580" y="930"/>
<text fill="#2c3e50" font-size="12" font-weight="bold" text-anchor="middle" x="1638" y="925">
1
</text>
<text fill="#7f8c8d" font-size="10" text-anchor="middle" x="1638" y="960">
Huge (&gt;16KB)
</text>
<rect fill="white" height="300" rx="5" stroke="#bdc3c7" stroke-width="1" width="850" x="50" y="1020"/>
<text fill="#2c3e50" font-size="16" font-weight="bold" text-anchor="middle" x="475" y="1010">
Tracked Variables by Category
</text>
<rect fill="#3498db" height="235" stroke="#34495e" stroke-width="1" width="650" x="200" y="1050"/>
<text fill="#2c3e50" font-size="12" font-weight="600" x="60" y="1174">
Collections
</text>
<text fill="white" font-size="10" x="210" y="1174">
16.0 KB (32 vars)
</text>
<rect fill="white" height="300" rx="10" stroke="#9b59b6" stroke-width="2" width="800" x="950" y="1020"/>
<text fill="#2c3e50" font-size="18" font-weight="bold" text-anchor="middle" x="1350" y="1010">
Call Stack Analysis
</text>
<circle cx="1000" cy="1060" fill="#e74c3c" r="20" stroke="#2c3e50" stroke-width="2"/>
<text fill="#2c3e50" font-size="11" font-weight="500" x="1030" y="1065">
Unknown (62813 allocs, 4442743 bytes)
</text>
<circle cx="1000" cy="1085" fill="#f39c12" r="5" stroke="#2c3e50" stroke-width="2"/>
<text fill="#2c3e50" font-size="11" font-weight="500" x="1030" y="1090">
alloc::vec::Vec&lt;alloc::vec:... (32 allocs, 16360 bytes)
</text>
<rect fill="white" height="300" rx="10" stroke="#27ae60" stroke-width="2" width="1700" x="50" y="1370"/>
<text fill="#2c3e50" font-size="18" font-weight="bold" text-anchor="middle" x="900" y="1360">
Memory Growth Trends
</text>
<circle cx="100" cy="1617" fill="#27ae60" r="4" stroke="#2c3e50" stroke-width="1"/>
<circle cx="260" cy="1613" fill="#27ae60" r="4" stroke="#2c3e50" stroke-width="1"/>
<line stroke="#27ae60" stroke-width="2" x1="100" x2="260" y1="1617" y2="1613"/>
<circle cx="420" cy="1609" fill="#27ae60" r="4" stroke="#2c3e50" stroke-width="1"/>
<line stroke="#27ae60" stroke-width="2" x1="260" x2="420" y1="1613" y2="1609"/>
<circle cx="580" cy="1605" fill="#27ae60" r="4" stroke="#2c3e50" stroke-width="1"/>
<line stroke="#27ae60" stroke-width="2" x1="420" x2="580" y1="1609" y2="1605"/>
<circle cx="740" cy="1601" fill="#27ae60" r="4" stroke="#2c3e50" stroke-width="1"/>
<line stroke="#27ae60" stroke-width="2" x1="580" x2="740" y1="1605" y2="1601"/>
<circle cx="900" cy="1597" fill="#27ae60" r="4" stroke="#2c3e50" stroke-width="1"/>
<line stroke="#27ae60" stroke-width="2" x1="740" x2="900" y1="1601" y2="1597"/>
<circle cx="1060" cy="1593" fill="#27ae60" r="4" stroke="#2c3e50" stroke-width="1"/>
<line stroke="#27ae60" stroke-width="2" x1="900" x2="1060" y1="1597" y2="1593"/>
<circle cx="1220" cy="1589" fill="#27ae60" r="4" stroke="#2c3e50" stroke-width="1"/>
<line stroke="#27ae60" stroke-width="2" x1="1060" x2="1220" y1="1593" y2="1589"/>
<circle cx="1380" cy="1585" fill="#27ae60" r="4" stroke="#2c3e50" stroke-width="1"/>
<line stroke="#27ae60" stroke-width="2" x1="1220" x2="1380" y1="1589" y2="1585"/>
<circle cx="1540" cy="1581" fill="#27ae60" r="4" stroke="#2c3e50" stroke-width="1"/>
<line stroke="#27ae60" stroke-width="2" x1="1380" x2="1540" y1="1585" y2="1581"/>
<line stroke="#e74c3c" stroke-dasharray="10,5" stroke-width="2" x1="100" x2="1700" y1="1420" y2="1420"/>
<text fill="#e74c3c" font-size="12" font-weight="bold" x="1650" y="1410">
Peak: 38837518 bytes
</text>
<rect fill="white" height="300" rx="5" stroke="#bdc3c7" stroke-width="1" width="1700" x="50" y="1720"/>
<text fill="#2c3e50" font-size="16" font-weight="bold" text-anchor="middle" x="900" y="1710">
Variable Allocation Timeline
</text>
<circle cx="70" cy="1770" fill="#3498db" r="5" stroke="#2c3e50" stroke-width="2"/>
<line stroke="#bdc3c7" stroke-dasharray="3,3" stroke-width="1" x1="75" x2="1530" y1="1770" y2="1770"/>
<text fill="#2c3e50" font-size="11" font-weight="500" x="1535" y="1774">
local_data (480 B)
</text>
<circle cx="252" cy="1795" fill="#3498db" r="5" stroke="#2c3e50" stroke-width="2"/>
<line stroke="#bdc3c7" stroke-dasharray="3,3" stroke-width="1" x1="257" x2="1530" y1="1795" y2="1795"/>
<text fill="#2c3e50" font-size="11" font-weight="500" x="1535" y="1799">
local_data (720 B)
</text>
<circle cx="435" cy="1820" fill="#3498db" r="5" stroke="#2c3e50" stroke-width="2"/>
<line stroke="#bdc3c7" stroke-dasharray="3,3" stroke-width="1" x1="440" x2="1530" y1="1820" y2="1820"/>
<text fill="#2c3e50" font-size="11" font-weight="500" x="1535" y="1824">
local_data (480 B)
</text>
<circle cx="617" cy="1845" fill="#3498db" r="5" stroke="#2c3e50" stroke-width="2"/>
<line stroke="#bdc3c7" stroke-dasharray="3,3" stroke-width="1" x1="622" x2="1530" y1="1845" y2="1845"/>
<text fill="#2c3e50" font-size="11" font-weight="500" x="1535" y="1849">
local_data (480 B)
</text>
<circle cx="800" cy="1870" fill="#3498db" r="5" stroke="#2c3e50" stroke-width="2"/>
<line stroke="#bdc3c7" stroke-dasharray="3,3" stroke-width="1" x1="805" x2="1530" y1="1870" y2="1870"/>
<text fill="#2c3e50" font-size="11" font-weight="500" x="1535" y="1874">
local_data (720 B)
</text>
<circle cx="982" cy="1895" fill="#3498db" r="5" stroke="#2c3e50" stroke-width="2"/>
<line stroke="#bdc3c7" stroke-dasharray="3,3" stroke-width="1" x1="987" x2="1530" y1="1895" y2="1895"/>
<text fill="#2c3e50" font-size="11" font-weight="500" x="1535" y="1899">
local_data (1000 B)
</text>
<circle cx="1165" cy="1920" fill="#3498db" r="5" stroke="#2c3e50" stroke-width="2"/>
<line stroke="#bdc3c7" stroke-dasharray="3,3" stroke-width="1" x1="1170" x2="1530" y1="1920" y2="1920"/>
<text fill="#2c3e50" font-size="11" font-weight="500" x="1535" y="1924">
local_data (480 B)
</text>
<circle cx="1347" cy="1945" fill="#3498db" r="5" stroke="#2c3e50" stroke-width="2"/>
<line stroke="#bdc3c7" stroke-dasharray="3,3" stroke-width="1" x1="1352" x2="1530" y1="1945" y2="1945"/>
<text fill="#2c3e50" font-size="11" font-weight="500" x="1535" y="1949">
local_data (480 B)
</text>
<line stroke="#34495e" stroke-width="2" x1="70" x2="1510" y1="1980" y2="1980"/>
<text fill="#7f8c8d" font-size="12" font-weight="600" x="70" y="2000">
Timeline
</text>
<rect fill="white" height="250" rx="10" stroke="#34495e" stroke-width="2" width="850" x="50" y="2070"/>
<text fill="#2c3e50" font-size="18" font-weight="bold" text-anchor="middle" x="475" y="2060">
Interactive Legend &amp; Guide
</text>
<rect fill="#e74c3c" height="15" stroke="#2c3e50" stroke-width="1" width="20" x="80" y="2100"/>
<text fill="#2c3e50" font-size="12" x="110" y="2110">
High Memory Usage / Critical
</text>
<rect fill="#f39c12" height="15" stroke="#2c3e50" stroke-width="1" width="20" x="300" y="2100"/>
<text fill="#2c3e50" font-size="12" x="330" y="2110">
Medium Usage / Warning
</text>
<rect fill="#27ae60" height="15" stroke="#2c3e50" stroke-width="1" width="20" x="520" y="2100"/>
<text fill="#2c3e50" font-size="12" x="550" y="2110">
Low Usage / Good
</text>
<rect fill="#3498db" height="15" stroke="#2c3e50" stroke-width="1" width="20" x="80" y="2140"/>
<text fill="#2c3e50" font-size="12" x="110" y="2150">
Performance Metrics
</text>
<rect fill="#9b59b6" height="15" stroke="#2c3e50" stroke-width="1" width="20" x="300" y="2140"/>
<text fill="#2c3e50" font-size="12" x="330" y="2150">
Call Stack Data
</text>
<rect fill="#34495e" height="15" stroke="#2c3e50" stroke-width="1" width="20" x="520" y="2140"/>
<text fill="#2c3e50" font-size="12" x="550" y="2150">
General Information
</text>
<rect fill="white" height="250" rx="10" stroke="#2c3e50" stroke-width="2" width="800" x="950" y="2070"/>
<text fill="#2c3e50" font-size="18" font-weight="bold" text-anchor="middle" x="1350" y="2060">
Memory Analysis Summary
</text>
<text fill="#2c3e50" font-size="13" font-weight="500" x="980" y="2110">
Total Active Allocations: 133704
</text>
<text fill="#2c3e50" font-size="13" font-weight="500" x="980" y="2135">
Tracked Variables: 32 (0.0%)
</text>
<text fill="#2c3e50" font-size="13" font-weight="500" x="980" y="2160">
Average Allocation Size: 70 bytes
</text>
<text fill="#2c3e50" font-size="13" font-weight="500" x="980" y="2185">
Memory Efficiency: 98.7%
</text>
<text fill="#2c3e50" font-size="13" font-weight="500" x="980" y="2210">
Peak vs Current: 38837518 vs 7605949 bytes
</text>
</svg>